<svg version="1.1" xmlns="http://www.w3.org/2000/svg" viewBox="0 0 10020 647.5429077148438" width="20040" height="1295.0858154296875">
  <!-- svg-source:excalidraw -->
  
  <defs>
    <style>
      @font-face {
        font-family: "Virgil";
        src: url("https://excalidraw.com/Virgil.woff2");
      }
      @font-face {
        font-family: "Cascadia";
        src: url("https://excalidraw.com/Cascadia.woff2");
      }
    </style>
  </defs>
  <rect x="0" y="0" width="10020" height="647.5429077148438" fill="#fff0"></rect><g stroke-linecap="round" transform="translate(10 10) rotate(0 5000 0.5)"><path d="M-0.52 -0.26 C3022.65 -30.2, 6044.59 -29.2, 9999.32 0.22 M0.38 -0.31 C3948.03 -0.44, 7895.41 0.2, 9999.95 0.08 M10000.08 -0.06 C10000.09 0.27, 10000.05 0.48, 10000.09 0.92 M9999.97 0.01 C9999.95 0.33, 9999.98 0.72, 10000 0.99 M10000.22 1.51 C7095.77 35.76, 4193.15 34.95, -0.25 0.75 M10000.01 1.13 C7827.97 2.74, 5656.23 3.35, -0.33 0.84 M-0.04 1.01 C0 0.63, -0.06 0.15, 0.05 -0.03 M-0.04 0.95 C-0.04 0.73, -0.03 0.59, -0.05 -0.02" stroke="transparent" stroke-width="1" fill="none"></path></g><g transform="translate(558.3699340820312 558.8853149414062) rotate(0 18.046905517578125 -18.56787109375)" stroke="none"><path fill="#000000" d="M -1.58,-0.72 Q -1.58,-0.72 -0.99,-2.16 -0.40,-3.59 0.41,-5.14 1.23,-6.68 2.07,-8.14 2.91,-9.61 3.94,-11.32 4.96,-13.02 6.04,-14.80 7.12,-16.58 8.37,-18.45 9.63,-20.33 10.92,-22.27 12.21,-24.21 13.36,-25.99 14.51,-27.77 15.63,-29.46 16.75,-31.14 17.65,-32.52 18.55,-33.90 19.38,-35.18 20.20,-36.45 21.05,-37.76 21.91,-39.08 22.69,-40.15 23.47,-41.23 24.55,-41.79 25.62,-42.34 26.96,-41.78 28.29,-41.21 28.78,-39.85 29.28,-38.49 29.44,-37.27 29.60,-36.04 29.75,-34.97 29.89,-33.89 30.05,-32.84 30.21,-31.79 30.37,-30.73 30.54,-29.68 30.69,-28.54 30.85,-27.41 31.01,-26.29 31.18,-25.18 31.35,-23.95 31.53,-22.73 31.73,-21.50 31.94,-20.27 32.20,-19.04 32.46,-17.81 32.76,-16.55 33.06,-15.28 33.37,-13.99 33.69,-12.70 34.02,-11.49 34.35,-10.28 34.68,-9.26 35.01,-8.23 35.75,-6.60 36.48,-4.97 37.08,-4.03 37.68,-3.09 38.22,-2.04 38.76,-1.00 39.00,0.18 39.24,1.38 38.49,3.22 37.75,5.05 36.76,5.48 35.78,5.90 34.17,5.56 32.56,5.22 30.11,4.76 27.66,4.30 25.83,4.10 24.00,3.91 22.13,3.77 20.26,3.64 18.41,3.59 16.55,3.55 14.75,3.62 12.95,3.68 11.31,3.79 9.67,3.89 8.36,3.99 7.05,4.08 4.22,3.54 1.40,3.00 1.06,2.81 0.73,2.63 0.48,2.35 0.23,2.06 0.07,1.72 -0.07,1.37 -0.10,0.99 -0.13,0.61 -0.04,0.24 0.04,-0.11 0.24,-0.43 0.45,-0.75 0.74,-0.99 1.04,-1.23 1.39,-1.36 1.75,-1.50 2.13,-1.51 2.50,-1.52 2.87,-1.41 3.23,-1.30 3.54,-1.08 3.85,-0.86 4.07,-0.55 4.29,-0.24 4.40,0.11 4.52,0.47 4.51,0.85 4.50,1.23 4.37,1.58 4.24,1.94 4.00,2.24 3.77,2.53 3.45,2.74 3.13,2.94 2.76,3.04 2.39,3.13 2.02,3.10 1.64,3.07 1.29,2.92 0.94,2.77 0.66,2.52 0.37,2.27 0.19,1.94 0.00,1.61 -0.06,1.24 -0.14,0.87 -0.09,0.49 -0.04,0.11 0.12,-0.22 0.29,-0.56 0.56,-0.83 0.82,-1.09 1.16,-1.26 1.50,-1.43 1.88,-1.49 2.25,-1.54 2.62,-1.47 3.00,-1.40 3.00,-1.40 3.00,-1.40 4.95,-0.90 6.89,-0.40 8.14,-0.39 9.39,-0.39 11.03,-0.49 12.67,-0.60 14.56,-0.78 16.46,-0.96 18.39,-1.09 20.33,-1.21 22.26,-1.29 24.18,-1.37 26.15,-1.44 28.12,-1.50 30.33,-1.51 32.55,-1.51 33.41,-0.64 34.27,0.21 33.58,1.13 32.89,2.04 32.70,0.91 32.51,-0.21 31.94,-1.35 31.38,-2.49 30.55,-4.55 29.73,-6.62 29.41,-7.73 29.08,-8.84 28.74,-10.09 28.40,-11.34 28.05,-12.65 27.69,-13.96 27.35,-15.28 27.01,-16.60 26.71,-17.94 26.40,-19.28 26.15,-20.58 25.91,-21.89 25.71,-23.12 25.52,-24.36 25.36,-25.51 25.19,-26.67 25.06,-27.76 24.92,-28.85 24.77,-29.94 24.63,-31.04 24.49,-32.13 24.36,-33.22 24.25,-34.29 24.13,-35.35 24.18,-36.68 24.22,-38.02 25.45,-37.82 26.67,-37.62 25.85,-36.93 25.03,-36.23 24.06,-35.31 23.10,-34.38 22.15,-33.18 21.21,-31.98 20.21,-30.73 19.22,-29.49 18.11,-27.85 17.00,-26.20 15.90,-24.38 14.79,-22.56 13.57,-20.58 12.35,-18.60 11.24,-16.74 10.12,-14.87 9.14,-13.04 8.17,-11.21 7.22,-9.42 6.27,-7.63 5.42,-6.23 4.57,-4.83 3.77,-3.44 2.97,-2.06 2.28,-0.66 1.58,0.72 1.47,0.90 1.36,1.08 1.22,1.22 1.07,1.37 0.89,1.48 0.70,1.59 0.50,1.65 0.30,1.71 0.09,1.72 -0.11,1.74 -0.31,1.70 -0.52,1.66 -0.71,1.57 -0.90,1.48 -1.07,1.35 -1.23,1.22 -1.36,1.06 -1.49,0.89 -1.58,0.70 -1.66,0.51 -1.70,0.30 -1.74,0.09 -1.72,-0.11 -1.71,-0.32 -1.65,-0.52 -1.58,-0.72 -1.58,-0.72 L -1.58,-0.72 Z"></path></g><g transform="translate(560.20751953125 597.9903564453125) rotate(0 12.51104736328125 -14.886260986328125)" stroke="none"><path fill="#000000" d="M -2.10,-1.41 Q -2.10,-1.41 -1.37,-2.52 -0.63,-3.64 0.20,-4.76 1.04,-5.88 1.81,-6.92 2.58,-7.95 3.27,-8.94 3.96,-9.93 4.54,-10.87 5.12,-11.81 5.65,-12.75 6.19,-13.69 6.74,-14.66 7.30,-15.64 7.88,-16.63 8.46,-17.62 9.03,-18.60 9.59,-19.57 10.12,-20.50 10.64,-21.43 11.67,-23.06 12.70,-24.69 13.33,-25.64 13.96,-26.59 14.64,-27.92 15.32,-29.25 15.85,-30.43 16.38,-31.60 16.74,-32.65 17.10,-33.69 17.56,-34.76 18.02,-35.82 18.63,-36.55 19.23,-37.29 19.55,-37.54 19.86,-37.79 20.22,-37.96 20.58,-38.13 20.98,-38.21 21.37,-38.29 21.77,-38.27 22.17,-38.25 22.56,-38.14 22.94,-38.03 23.29,-37.82 23.64,-37.62 23.92,-37.34 24.21,-37.06 24.43,-36.72 24.64,-36.38 24.76,-36.00 24.89,-35.62 24.92,-35.22 24.95,-34.82 24.88,-34.42 24.82,-34.03 24.66,-33.66 24.50,-33.29 24.25,-32.97 24.01,-32.65 24.41,-34.28 24.82,-35.91 24.94,-34.80 25.06,-33.69 25.11,-32.53 25.17,-31.37 25.42,-29.70 25.68,-28.04 25.87,-26.96 26.06,-25.89 26.25,-24.79 26.43,-23.70 26.59,-22.65 26.75,-21.60 26.91,-19.66 27.07,-17.73 27.12,-16.18 27.16,-14.63 27.39,-13.33 27.62,-12.02 27.89,-10.99 28.17,-9.96 28.57,-8.85 28.96,-7.74 29.39,-6.58 29.82,-5.41 30.20,-4.04 30.58,-2.67 30.95,-1.24 31.31,0.17 31.56,1.34 31.80,2.52 31.50,4.44 31.20,6.37 30.47,7.16 29.75,7.96 28.04,8.11 26.33,8.27 24.37,8.23 22.40,8.18 21.26,8.14 20.11,8.10 18.88,8.06 17.65,8.01 16.39,7.97 15.13,7.93 13.78,7.88 12.43,7.83 11.12,7.82 9.82,7.81 8.66,7.85 7.49,7.89 5.63,8.06 3.78,8.24 2.11,8.32 0.45,8.41 -0.67,8.46 -1.80,8.50 -2.48,8.53 -3.17,8.57 -3.55,8.52 -3.94,8.47 -4.31,8.34 -4.67,8.20 -5.00,7.98 -5.32,7.76 -5.58,7.47 -5.84,7.18 -6.02,6.83 -6.20,6.48 -6.30,6.11 -6.39,5.73 -6.39,5.34 -6.39,4.95 -6.30,4.57 -6.21,4.19 -6.03,3.84 -5.85,3.49 -5.59,3.20 -5.33,2.91 -5.01,2.69 -4.69,2.46 -4.32,2.32 -3.96,2.18 -3.57,2.14 -3.18,2.09 -3.53,1.42 -3.88,0.75 -3.57,0.39 -3.26,0.02 -2.86,-0.21 -2.45,-0.46 -1.98,-0.57 -1.52,-0.67 -1.04,-0.62 -0.57,-0.57 -0.14,-0.37 0.29,-0.17 0.64,0.14 0.98,0.47 1.21,0.89 1.43,1.31 1.51,1.78 1.59,2.25 1.51,2.72 1.44,3.19 1.22,3.61 1.00,4.04 0.65,4.37 0.31,4.69 -0.12,4.90 -0.55,5.10 -1.02,5.15 -1.50,5.20 -1.96,5.10 -2.43,5.00 -2.84,4.76 -3.25,4.51 -3.56,4.15 -3.87,3.79 -4.04,3.35 -4.22,2.91 -4.25,2.43 -4.28,1.95 -4.15,1.49 -4.03,1.03 -3.76,0.64 -3.49,0.24 -3.12,-0.04 -2.74,-0.33 -2.29,-0.48 -1.83,-0.63 -1.36,-0.64 -0.88,-0.64 -0.43,-0.49 0.01,-0.34 0.39,-0.05 0.78,0.23 1.04,0.62 1.31,1.01 1.44,1.47 1.57,1.93 1.55,2.41 1.52,2.88 1.35,3.33 1.17,3.77 1.17,3.77 1.17,3.77 -0.99,6.17 -3.17,8.57 -3.55,8.52 -3.94,8.47 -4.31,8.34 -4.67,8.20 -5.00,7.98 -5.32,7.76 -5.58,7.47 -5.84,7.18 -6.02,6.83 -6.20,6.48 -6.30,6.11 -6.39,5.73 -6.39,5.34 -6.39,4.95 -6.30,4.57 -6.21,4.19 -6.03,3.84 -5.85,3.50 -5.59,3.20 -5.33,2.91 -5.01,2.69 -4.69,2.46 -4.32,2.32 -3.96,2.18 -3.57,2.14 -3.18,2.09 -2.02,2.13 -0.85,2.18 0.44,2.20 1.74,2.21 3.39,2.13 5.05,2.05 6.12,1.97 7.19,1.88 8.43,1.81 9.67,1.73 11.05,1.65 12.43,1.58 13.78,1.53 15.13,1.48 16.39,1.43 17.65,1.39 18.88,1.35 20.10,1.30 22.28,1.23 24.46,1.16 25.72,1.25 26.97,1.34 25.86,2.38 24.75,3.42 24.54,2.20 24.32,0.97 23.99,-0.40 23.66,-1.79 23.39,-2.96 23.11,-4.12 22.59,-5.50 22.07,-6.87 21.71,-8.18 21.36,-9.48 21.12,-10.68 20.88,-11.87 20.76,-13.22 20.65,-14.56 20.64,-15.98 20.63,-17.40 20.51,-18.99 20.39,-20.57 20.01,-22.57 19.63,-24.57 19.37,-25.68 19.11,-26.80 18.75,-28.86 18.40,-30.92 18.45,-32.36 18.51,-33.80 18.87,-35.54 19.23,-37.29 19.55,-37.54 19.86,-37.79 20.22,-37.96 20.58,-38.13 20.98,-38.21 21.37,-38.29 21.77,-38.27 22.17,-38.25 22.56,-38.14 22.94,-38.03 23.29,-37.82 23.64,-37.62 23.92,-37.34 24.21,-37.06 24.43,-36.72 24.64,-36.38 24.76,-36.00 24.89,-35.62 24.92,-35.22 24.95,-34.82 24.88,-34.42 24.82,-34.03 24.66,-33.66 24.50,-33.29 24.25,-32.97 24.01,-32.65 23.54,-32.05 23.07,-31.45 22.48,-30.18 21.89,-28.91 21.26,-27.72 20.62,-26.54 19.71,-24.97 18.79,-23.40 18.14,-22.42 17.49,-21.43 16.49,-20.03 15.49,-18.63 14.93,-17.68 14.37,-16.74 13.77,-15.76 13.18,-14.78 12.59,-13.82 12.00,-12.87 11.41,-11.90 10.82,-10.93 10.20,-9.94 9.58,-8.94 8.90,-7.91 8.21,-6.88 7.46,-5.86 6.71,-4.83 5.92,-3.81 5.13,-2.79 4.37,-1.79 3.61,-0.79 2.85,0.30 2.10,1.41 1.90,1.64 1.70,1.87 1.46,2.05 1.21,2.23 0.92,2.34 0.64,2.45 0.33,2.49 0.03,2.53 -0.27,2.50 -0.57,2.47 -0.86,2.36 -1.15,2.26 -1.40,2.09 -1.65,1.92 -1.86,1.69 -2.07,1.47 -2.21,1.20 -2.36,0.93 -2.44,0.63 -2.51,0.34 -2.52,0.03 -2.52,-0.27 -2.45,-0.57 -2.38,-0.86 -2.24,-1.14 -2.10,-1.41 -2.10,-1.41 L -2.10,-1.41 Z"></path></g><g transform="translate(610 530) rotate(0 27 50)"><text x="0" y="18" font-family="Virgil, Segoe UI Emoji" font-size="20px" fill="#000000" text-anchor="start" style="white-space: pre;" direction="ltr">faible</text><text x="0" y="43" font-family="Virgil, Segoe UI Emoji" font-size="20px" fill="#000000" text-anchor="start" style="white-space: pre;" direction="ltr">fort</text><text x="0" y="68" font-family="Virgil, Segoe UI Emoji" font-size="20px" fill="#000000" text-anchor="start" style="white-space: pre;" direction="ltr">faible</text><text x="0" y="93" font-family="Virgil, Segoe UI Emoji" font-size="20px" fill="#000000" text-anchor="start" style="white-space: pre;" direction="ltr">fort</text></g><g transform="translate(711.7052001953125 535.1995849609375) rotate(0 24.927520751953125 22.985748291015625)" stroke="none"><path fill="#000000" d="M 1.53,-0.94 Q 1.53,-0.94 2.43,0.45 3.33,1.85 4.24,3.04 5.16,4.23 6.26,5.60 7.36,6.97 8.62,8.60 9.87,10.23 11.22,11.95 12.57,13.68 13.97,15.43 15.36,17.18 16.70,18.86 18.04,20.54 19.31,22.05 20.58,23.55 21.72,24.87 22.87,26.19 23.89,27.36 24.92,28.53 25.82,29.55 26.72,30.57 27.52,31.48 28.31,32.38 29.63,33.88 30.95,35.38 32.00,36.74 33.05,38.11 33.96,39.37 34.88,40.64 35.56,41.57 36.25,42.50 37.01,43.31 37.77,44.11 35.93,43.88 34.10,43.64 33.94,42.16 33.77,40.68 34.31,38.72 34.84,36.75 35.46,35.18 36.08,33.62 37.05,31.72 38.03,29.83 39.11,27.88 40.18,25.92 41.26,23.86 42.35,21.79 43.47,19.61 44.59,17.43 45.63,15.39 46.68,13.34 47.48,11.62 48.28,9.90 48.87,8.58 49.46,7.26 50.20,5.70 50.93,4.14 51.53,3.02 52.13,1.91 53.36,2.72 54.59,3.53 53.44,3.65 52.28,3.77 50.85,4.11 49.41,4.44 47.94,4.75 46.48,5.06 44.38,5.40 42.28,5.73 39.77,6.11 37.26,6.50 34.68,6.80 32.10,7.10 29.56,7.31 27.02,7.53 24.67,7.71 22.33,7.89 20.28,8.03 18.23,8.18 16.47,8.35 14.72,8.52 13.17,8.68 11.61,8.85 10.19,8.96 8.76,9.08 7.51,9.21 6.26,9.34 5.17,9.52 4.07,9.70 3.01,9.86 1.95,10.02 0.04,10.24 -1.86,10.46 -3.53,10.58 -5.20,10.70 -5.62,10.65 -6.04,10.60 -6.41,10.42 -6.79,10.24 -7.09,9.94 -7.39,9.65 -7.58,9.28 -7.77,8.91 -7.84,8.49 -7.90,8.08 -7.82,7.66 -7.75,7.25 -7.55,6.88 -7.35,6.52 -7.04,6.23 -6.73,5.95 -6.35,5.78 -5.96,5.61 -5.55,5.57 -5.13,5.53 -4.72,5.63 -4.31,5.72 -3.96,5.94 -3.60,6.16 -3.34,6.49 -3.07,6.81 -2.92,7.20 -2.77,7.59 -2.75,8.01 -2.74,8.43 -2.85,8.83 -2.97,9.24 -3.21,9.58 -3.45,9.92 -3.79,10.17 -4.13,10.42 -4.53,10.55 -4.93,10.68 -5.34,10.67 -5.76,10.66 -6.16,10.52 -6.55,10.39 -6.88,10.13 -7.21,9.87 -7.44,9.52 -7.67,9.17 -7.78,8.76 -7.89,8.36 -7.86,7.94 -7.83,7.52 -7.67,7.13 -7.51,6.75 -7.23,6.43 -6.96,6.12 -6.59,5.90 -6.23,5.69 -5.82,5.61 -5.41,5.53 -5.41,5.53 -5.41,5.53 -2.89,5.45 -0.36,5.37 1.62,5.34 3.61,5.31 4.82,5.25 6.04,5.18 7.34,5.18 8.63,5.18 10.00,5.20 11.37,5.22 12.92,5.18 14.47,5.14 16.22,5.05 17.96,4.96 19.97,4.77 21.98,4.58 24.29,4.27 26.59,3.96 29.03,3.58 31.47,3.20 33.90,2.69 36.33,2.18 38.69,1.51 41.04,0.85 43.04,0.14 45.03,-0.56 46.52,-1.00 48.01,-1.45 50.06,-1.83 52.10,-2.21 53.40,-2.13 54.70,-2.06 55.86,-1.50 57.02,-0.93 57.25,1.05 57.47,3.05 56.80,3.92 56.12,4.79 55.39,5.62 54.65,6.44 53.71,7.70 52.78,8.96 52.08,10.16 51.38,11.35 50.58,13.07 49.77,14.80 48.86,16.90 47.95,18.99 47.02,21.24 46.08,23.49 45.24,25.66 44.40,27.84 43.67,29.85 42.94,31.87 42.36,33.72 41.78,35.56 41.39,36.97 41.00,38.38 40.73,39.47 40.46,40.57 40.03,42.19 39.60,43.80 39.20,44.96 38.80,46.12 37.93,47.25 37.05,48.38 35.85,48.54 34.65,48.69 33.71,48.09 32.77,47.49 32.15,46.62 31.53,45.75 30.92,44.67 30.30,43.60 29.53,42.25 28.77,40.90 27.99,39.54 27.21,38.19 26.12,36.55 25.03,34.91 24.37,33.93 23.71,32.95 22.93,31.85 22.15,30.74 21.25,29.49 20.35,28.25 19.29,26.88 18.24,25.50 16.98,23.98 15.72,22.45 14.33,20.82 12.94,19.19 11.48,17.50 10.01,15.81 8.56,14.16 7.10,12.51 5.73,10.96 4.36,9.41 3.18,7.96 1.99,6.51 1.07,5.16 0.14,3.81 -0.69,2.37 -1.53,0.94 -1.62,0.74 -1.71,0.55 -1.76,0.33 -1.80,0.12 -1.78,-0.09 -1.77,-0.31 -1.71,-0.52 -1.65,-0.72 -1.54,-0.91 -1.42,-1.10 -1.27,-1.25 -1.12,-1.41 -0.93,-1.52 -0.75,-1.64 -0.54,-1.70 -0.33,-1.77 -0.12,-1.78 0.09,-1.80 0.30,-1.76 0.52,-1.72 0.72,-1.63 0.92,-1.55 1.09,-1.41 1.26,-1.28 1.40,-1.11 1.53,-0.94 1.53,-0.94 L 1.53,-0.94 Z"></path></g><g transform="translate(747.822509765625 580.2659912109375) rotate(0 0.885955810546875 7.0474700927734375)" stroke="none"><path fill="#000000" d="M 2.23,1.26 Q 2.23,1.26 1.32,2.73 0.42,4.20 -0.26,5.23 -0.95,6.25 -1.67,7.10 -2.39,7.95 -3.88,9.41 -5.36,10.87 -6.99,12.35 -8.61,13.82 -9.48,14.57 -10.35,15.32 -11.68,16.66 -13.01,18.01 -14.41,19.35 -15.82,20.70 -17.23,21.89 -18.64,23.08 -19.87,24.10 -21.10,25.12 -22.12,25.92 -23.15,26.72 -23.91,27.46 -24.67,28.21 -24.68,26.79 -24.70,25.37 -25.55,24.49 -26.40,23.61 -24.85,23.62 -23.30,23.64 -22.16,23.67 -21.02,23.71 -19.79,23.74 -18.56,23.78 -17.39,23.81 -16.22,23.83 -15.09,23.85 -13.95,23.87 -12.80,23.89 -11.64,23.91 -10.41,24.01 -9.19,24.11 -7.86,24.37 -6.53,24.63 -5.30,24.85 -4.06,25.07 -2.83,25.17 -1.60,25.28 -0.20,25.36 1.20,25.43 2.72,25.50 4.24,25.56 5.72,25.64 7.19,25.72 8.45,25.79 9.70,25.85 11.66,25.95 13.61,26.04 15.16,26.02 16.70,26.01 18.20,25.97 19.71,25.93 21.01,25.88 22.31,25.84 23.46,25.80 24.62,25.77 25.95,25.72 27.27,25.67 26.54,26.69 25.81,27.71 25.25,26.74 24.69,25.76 23.72,24.18 22.76,22.60 21.64,20.92 20.52,19.23 19.19,17.57 17.87,15.90 16.99,14.90 16.10,13.90 15.11,12.74 14.12,11.57 13.08,10.30 12.04,9.02 10.99,7.71 9.94,6.40 8.91,5.18 7.89,3.95 6.94,2.88 5.98,1.81 5.13,0.86 4.28,-0.07 3.52,-0.91 2.75,-1.75 1.35,-3.21 -0.04,-4.67 -1.25,-5.85 -2.46,-7.02 -3.56,-8.05 -4.65,-9.09 -6.44,-10.78 -8.22,-12.46 -8.54,-12.83 -8.85,-13.21 -9.03,-13.66 -9.22,-14.12 -9.24,-14.60 -9.27,-15.09 -9.14,-15.56 -9.00,-16.04 -8.73,-16.44 -8.45,-16.84 -8.06,-17.14 -7.67,-17.44 -7.21,-17.59 -6.74,-17.75 -6.26,-17.75 -5.77,-17.75 -5.30,-17.59 -4.84,-17.43 -4.45,-17.13 -4.06,-16.84 -3.79,-16.43 -3.51,-16.03 -3.38,-15.56 -3.25,-15.08 -3.28,-14.59 -3.31,-14.11 -3.49,-13.65 -3.67,-13.20 -3.99,-12.83 -4.31,-12.45 -4.73,-12.20 -5.15,-11.95 -5.62,-11.85 -6.10,-11.74 -6.59,-11.79 -7.07,-11.85 -7.52,-12.05 -7.96,-12.26 -8.32,-12.60 -8.67,-12.94 -8.90,-13.37 -9.13,-13.80 -9.21,-14.28 -9.29,-14.77 -9.21,-15.25 -9.12,-15.73 -8.89,-16.16 -8.67,-16.60 -8.31,-16.93 -7.95,-17.27 -7.51,-17.47 -7.06,-17.68 -6.58,-17.73 -6.09,-17.78 -5.61,-17.68 -5.14,-17.57 -4.72,-17.32 -4.30,-17.06 -4.30,-17.06 -4.30,-17.06 -2.83,-15.66 -1.37,-14.26 -0.40,-13.21 0.56,-12.16 1.65,-10.97 2.75,-9.77 4.02,-8.32 5.29,-6.86 6.01,-6.03 6.73,-5.20 7.44,-4.34 8.15,-3.47 8.96,-2.53 9.76,-1.59 10.75,-0.52 11.74,0.55 12.84,1.72 13.94,2.90 15.08,4.10 16.23,5.30 17.33,6.43 18.43,7.56 19.49,8.61 20.55,9.65 21.58,10.65 22.60,11.65 23.51,12.62 24.42,13.60 25.16,14.52 25.89,15.43 26.53,16.31 27.18,17.18 28.36,18.90 29.55,20.63 30.50,22.14 31.46,23.65 31.99,25.30 32.52,26.94 32.45,28.04 32.39,29.14 31.81,30.08 31.23,31.01 29.25,31.61 27.27,32.20 25.95,32.15 24.62,32.10 23.46,32.07 22.31,32.03 21.00,31.98 19.69,31.94 18.15,31.88 16.61,31.83 14.89,31.72 13.16,31.62 11.27,31.42 9.38,31.23 8.19,31.15 6.99,31.07 5.58,31.04 4.18,31.01 2.62,31.04 1.06,31.07 -0.45,31.08 -1.97,31.08 -3.46,31.02 -4.95,30.95 -6.31,30.77 -7.68,30.60 -9.66,30.34 -11.64,30.09 -12.80,30.11 -13.95,30.12 -15.09,30.14 -16.23,30.16 -17.40,30.19 -18.56,30.21 -19.80,30.25 -21.03,30.29 -22.18,30.32 -23.32,30.35 -25.03,30.34 -26.73,30.34 -28.38,29.35 -30.02,28.37 -30.36,27.36 -30.70,26.35 -30.25,25.28 -29.79,24.21 -28.77,23.24 -27.74,22.26 -26.84,21.62 -25.94,20.99 -24.82,20.19 -23.70,19.39 -22.38,18.37 -21.06,17.34 -19.75,16.26 -18.43,15.17 -17.04,13.84 -15.65,12.52 -14.82,11.78 -13.99,11.03 -13.13,10.31 -12.27,9.59 -10.65,8.21 -9.02,6.82 -7.62,5.62 -6.22,4.42 -5.02,3.10 -3.82,1.79 -3.03,0.26 -2.23,-1.26 -2.04,-1.51 -1.86,-1.76 -1.62,-1.96 -1.38,-2.15 -1.10,-2.29 -0.83,-2.42 -0.52,-2.49 -0.22,-2.55 0.08,-2.54 0.39,-2.53 0.69,-2.45 0.98,-2.36 1.25,-2.21 1.52,-2.06 1.75,-1.85 1.97,-1.63 2.14,-1.37 2.31,-1.11 2.41,-0.82 2.51,-0.53 2.53,-0.22 2.56,0.08 2.51,0.39 2.47,0.69 2.35,0.98 2.23,1.26 2.23,1.26 L 2.23,1.26 Z"></path></g><g transform="translate(812.591796875 537.5429077148438) rotate(0 27 50)"><text x="0" y="18" font-family="Virgil, Segoe UI Emoji" font-size="20px" fill="#000000" text-anchor="start" style="white-space: pre;" direction="ltr">fort</text><text x="0" y="43" font-family="Virgil, Segoe UI Emoji" font-size="20px" fill="#000000" text-anchor="start" style="white-space: pre;" direction="ltr">faible</text><text x="0" y="68" font-family="Virgil, Segoe UI Emoji" font-size="20px" fill="#000000" text-anchor="start" style="white-space: pre;" direction="ltr">faible</text><text x="0" y="93" font-family="Virgil, Segoe UI Emoji" font-size="20px" fill="#000000" text-anchor="start" style="white-space: pre;" direction="ltr">fort</text></g><g transform="translate(530 510) rotate(0 3.5 12.5)"><text x="0" y="18" font-family="Virgil, Segoe UI Emoji" font-size="20px" fill="#000000" text-anchor="start" style="white-space: pre;" direction="ltr">1</text></g><g transform="translate(690 510) rotate(0 7.5 12.5)"><text x="0" y="18" font-family="Virgil, Segoe UI Emoji" font-size="20px" fill="#000000" text-anchor="start" style="white-space: pre;" direction="ltr">2</text></g></svg>